<?xml version="1.0" standalone="no"?>
<!DOCTYPE svg PUBLIC "-//W3C//DTD SVG 20010904//EN"
 "http://www.w3.org/TR/2001/REC-SVG-20010904/DTD/svg10.dtd">
<svg version="1.0" xmlns="http://www.w3.org/2000/svg"
 width="400.000000pt" height="400.000000pt" viewBox="0 0 400.000000 400.000000"
 preserveAspectRatio="xMidYMid meet">
<metadata>
Created by potrace 1.11, written by Peter Selinger 2001-2013
</metadata>
<g transform="translate(0.000000,400.000000) scale(0.100000,-0.100000)"
fill="#000000" stroke="none">
<path d="M2590 3834 c-120 -31 -244 -96 -326 -172 -106 -99 -165 -195 -219
-355 -42 -124 -48 -160 -49 -257 l-1 -75 65 1 c57 1 205 37 220 53 3 3 21 13
40 22 90 42 221 163 285 264 86 133 124 258 131 423 l5 113 -53 -3 c-29 -1
-73 -7 -98 -14z"/>
<path d="M1328 2985 c-2 -2 -23 -5 -46 -9 -140 -19 -331 -118 -452 -236 -182
-176 -281 -380 -331 -680 -12 -76 -16 -334 -5 -386 3 -16 8 -49 11 -74 13 -96
94 -384 150 -530 107 -279 319 -611 496 -774 76 -71 117 -97 196 -126 53 -19
75 -22 140 -17 43 3 87 8 98 10 73 17 120 33 197 68 116 53 209 72 323 66 124
-7 149 -14 302 -78 119 -50 198 -68 276 -63 64 4 72 5 122 19 43 12 130 62
172 100 122 109 214 228 332 429 58 99 131 249 151 311 7 22 19 53 27 69 19
36 3 70 -38 85 -82 28 -224 169 -303 300 -67 112 -105 212 -131 346 -25 131
18 319 108 470 43 73 218 258 255 269 16 5 19 14 17 40 -10 103 -148 249 -305
323 -134 63 -185 72 -375 69 -154 -3 -213 -14 -350 -71 -127 -53 -164 -64
-250 -72 -123 -13 -224 11 -374 87 -33 16 -81 35 -108 41 -42 9 -297 21 -305
14z"/>
</g>
</svg>
