<?xml version="1.0" standalone="no"?>
<!DOCTYPE svg PUBLIC "-//W3C//DTD SVG 20010904//EN"
 "http://www.w3.org/TR/2001/REC-SVG-20010904/DTD/svg10.dtd">
<svg version="1.0" xmlns="http://www.w3.org/2000/svg"
 width="400.000000pt" height="400.000000pt" viewBox="0 0 400.000000 400.000000"
 preserveAspectRatio="xMidYMid meet">

<g transform="translate(0.000000,400.000000) scale(0.100000,-0.100000)"
fill="#000000" stroke="none">
<path d="M0 2000 l0 -2000 2000 0 2000 0 0 2000 0 2000 -2000 0 -2000 0 0
-2000z m2740 1835 c0 -10 -10 -15 -33 -15 -55 0 -177 -39 -267 -86 -152 -78
-262 -184 -346 -331 -57 -99 -56 -84 0 32 78 158 182 265 331 338 129 64 315
101 315 62z m-1160 -855 c69 -9 104 -20 187 -60 133 -65 212 -84 328 -77 67 4
112 14 175 37 288 107 330 115 526 107 112 -5 142 -10 216 -37 105 -38 220
-112 283 -182 49 -55 107 -147 100 -159 -3 -3 -44 33 -92 80 -144 141 -315
220 -528 243 -177 19 -223 10 -619 -132 -125 -45 -166 -41 -374 38 -209 80
-308 98 -441 83 -418 -50 -728 -366 -818 -836 -23 -121 -22 -392 1 -529 9 -54
15 -101 12 -103 -2 -2 -12 36 -21 84 -27 132 -32 425 -10 556 44 268 156 491
330 655 202 191 450 268 745 232z m1559 -1503 c40 -69 106 -151 178 -218 37
-34 52 -52 33 -39 -109 75 -292 300 -242 300 4 0 18 -19 31 -43z m-2592 -59
c-3 -8 -6 -5 -6 6 -1 11 2 17 5 13 3 -3 4 -12 1 -19z"/>
</g>
</svg>
