<?xml version="1.0" standalone="no"?>
<!DOCTYPE svg PUBLIC "-//W3C//DTD SVG 20010904//EN"
 "http://www.w3.org/TR/2001/REC-SVG-20010904/DTD/svg10.dtd">
<svg version="1.0" xmlns="http://www.w3.org/2000/svg"
 width="400.000000pt" height="400.000000pt" viewBox="0 0 400.000000 400.000000"
 preserveAspectRatio="xMidYMid meet">
<metadata>
Created by potrace 1.15, written by Peter Selinger 2001-2017
</metadata>
<g transform="translate(0.000000,400.000000) scale(0.100000,-0.100000)"
fill="#000000" stroke="none">
<path d="M2610 3799 c-200 -52 -378 -181 -488 -353 -27 -42 -52 -73 -56 -69
-4 4 -4 -1 0 -11 5 -13 4 -17 -3 -13 -7 5 -9 -1 -5 -15 3 -14 1 -19 -6 -14 -8
5 -10 2 -6 -8 4 -9 1 -16 -6 -16 -7 0 -10 -7 -7 -15 4 -8 2 -17 -3 -20 -16
-10 -40 -143 -40 -219 l0 -76 58 0 c78 0 161 22 257 69 187 93 323 253 398
470 24 69 31 109 35 199 l5 112 -29 -1 c-16 0 -63 -9 -104 -20z"/>
<path d="M2549 2924 c-42 -7 -134 -34 -205 -60 -71 -25 -160 -57 -198 -71
-110 -40 -156 -35 -347 37 -203 76 -260 90 -379 90 -288 0 -560 -153 -726
-406 -90 -137 -137 -260 -169 -439 -21 -119 -21 -366 0 -506 8 -59 13 -115 9
-125 -5 -16 -4 -17 6 -4 9 12 11 9 6 -18 -4 -23 -2 -31 6 -26 7 5 9 0 6 -14
-4 -12 -3 -22 2 -22 4 0 8 -10 8 -22 0 -38 81 -275 136 -398 127 -284 354
-595 519 -711 100 -70 147 -83 280 -76 66 3 112 9 117 16 4 7 15 9 25 5 14 -6
16 -4 10 6 -6 10 -3 12 13 8 12 -4 20 -2 17 2 -7 12 32 23 46 14 8 -5 9 -3 4
6 -6 10 -4 12 9 7 9 -4 15 -3 12 2 -7 11 22 23 35 15 5 -3 9 0 9 6 0 6 5 8 10
5 6 -3 10 -1 10 5 0 7 7 10 15 6 8 -3 15 0 15 6 0 6 3 9 6 6 3 -3 31 1 62 10
72 19 230 20 302 2 30 -7 105 -33 165 -58 145 -59 196 -72 281 -72 153 0 275
65 404 216 19 22 31 33 25 25 -9 -14 -8 -14 7 -2 10 7 16 16 14 20 -7 11 12
36 26 36 7 0 12 8 10 17 -1 9 3 20 9 24 8 5 9 3 4 -7 -5 -8 -4 -11 1 -6 5 5
10 13 10 18 1 5 2 14 3 20 0 5 6 7 13 3 7 -4 8 -3 4 4 -4 7 4 22 17 34 28 26
121 176 172 278 45 89 115 265 115 288 0 11 -19 25 -51 39 -28 12 -48 27 -44
33 3 5 0 7 -8 4 -21 -8 -155 103 -213 177 -129 164 -176 307 -170 524 5 177
53 312 162 455 48 63 158 169 203 196 33 19 38 29 21 39 -6 4 -7 11 -4 17 4 6
3 8 -3 5 -5 -3 -31 18 -56 47 -127 147 -337 250 -560 275 -116 13 -131 13
-228 -5z"/>
</g>
</svg>
